<?xml version="1.0" standalone="no"?>
<!DOCTYPE svg PUBLIC "-//W3C//DTD SVG 20010904//EN"
 "http://www.w3.org/TR/2001/REC-SVG-20010904/DTD/svg10.dtd">
<svg version="1.0" xmlns="http://www.w3.org/2000/svg"
 width="700.000000pt" height="700.000000pt" viewBox="0 0 700.000000 700.000000"
 preserveAspectRatio="xMidYMid meet">
<metadata>
Created by potrace 1.11, written by Peter Selinger 2001-2013
</metadata>
<g transform="translate(0.000000,700.000000) scale(0.100000,-0.100000)"
fill="#000000" stroke="none">
<path d="M2275 5050 c6 -82 21 -187 31 -221 3 -11 21 -19 50 -24 62 -9 121
-31 167 -61 54 -35 83 -104 96 -226 15 -133 15 -1885 0 -2015 -23 -212 -89
-289 -265 -309 -51 -6 -52 -7 -62 -48 -6 -22 -14 -95 -17 -161 l-7 -120 867 0
868 0 -6 115 c-4 63 -12 135 -19 159 l-13 44 -104 18 c-173 29 -256 71 -316
162 -81 122 -86 220 -83 1437 l3 965 40 14 c22 7 87 16 145 18 125 6 213 -11
304 -60 199 -106 316 -381 316 -742 0 -330 -104 -556 -299 -653 -75 -37 -75
-37 -202 -37 -123 1 -128 0 -138 -22 -21 -46 -34 -149 -27 -215 l7 -66 67 -19
c56 -15 103 -18 287 -18 233 1 309 12 455 66 421 156 682 545 706 1052 26 518
-211 870 -668 992 -214 57 -221 58 -1246 59 l-944 1 7 -85z"/>
</g>
</svg>
