<svg xmlns="http://www.w3.org/2000/svg" fill="rgba(79, 186, 116, 0.15)" viewBox="0 0 1108 1308" transform="rotate(180)"  xmlns:v="https://vecta.io/nano"><path d="M243.999 1093.4h-.901l1.502-2.5 6.918-10 14.957-20.615 3.241 1.341 3.007.878 3.42-5.79-11.917-7.815-.01-1.5-2.5.138-11.159 15.361-17.457 23.5h-2.129l1.917-2.5 20.828-27.646 3-4.47 5.402-6.833 6.235 4.61 2.55-.978 32.704-45.683 14.514-20 7.595-10.573 2.071-2.427 6.929-10 1.177-1 10.823-15.465 4.636-6.535 19.145-26.42 4.219 2.218 4.843 3.759 2.157-2.199-4.393-3.358-7.296-5-24.311-19.8-23.818-23.827-3.643 3.643 11.375 12.77-9.914 8.602 6.515 6.723-6.036 5.783 6.974 7.142-7.795 8.963 7.783 8.016-13.025 14.67 7.01 5.313.073 1.188-13.5 16.528-1.916 2.667 3.363 3.716-18.447 23.238-20 25.333-3 3.664-8 10.322-22 27.674-10 13.055-.75.058-.75.057.053-1.5 12.003-15 2.455-3 9.987-13 10.657-13 2.356-3 9.988-12.859 33.34-41.905-5.628-4.736-1.711.02-10 12.345-6.155 7.14-32.913 39.5-8.776 10.5-6.158 7-4.334 5.996-1.429-1.429 5.766-6.687 7.372-8.88 53.37-64 3.777-4.793 4.145 3.752 1.822-3.256 13.275-15.621-9.761-8.493-4.34-2.341-6.66 7.717-11 12.161-23 25.571-.709 1.93 3.564 2.606-4.521 5.747-10.335 11.861-11 12.318-11 12.758-10 11.175-12 13.866-6.446 7.043-.054-2.089 18.183-20.911 24.317-27.79 10-11.319 10.5-11.635-.144-1.256-6.865-5.706-9.474 10.706-16.016 17.067-21 22.914-16.036 17.019-9.402 10.895-1.296-1.296 16.735-18.522 28.14-30.076 10.717-12 17.686-18.771 3.97 3.592.637-.821 22.857-25 13.994-15.685 6.339-7.315 7.132 6.863.561-.863 10.628-12.524-.659-1.609-14.171-13.299-29.829 30.869-1.733.062 7.562-8.5 23.816-24.602 8.103 7.321 7.225-7.225-12.367-12.367-10.607 9.681-78 76.177-54.473 53.876-1.472-1.472 27.944-27.412 80-77.915 36.481-35.973 6.975 6.76 4.044-3.66v-1.598l-10.779-11.398-7.822 7.806-32.899 30.356-5.605 4.371-.781-.781 29.361-26.947 17.54-16.877 6.484 6.259 8.546-7.997-21.276-23.889h-.952l-8.178 7h-1.64v2.371l4.5 4.79-3.837 2.806-8.163 6.815-5 4.048 4.762 5.078-6.722 5.592-10.278 9-17.464 15-.899.333-.899.333v2.113l3.268 2.39-9.768 9.096-12.587 10.481-.953-.953 20.041-17.748v-1.433l-4.727-5.496-8.695 6.884-6.024 5.5h-1.554v-.895l16.227-14.046 3.273 3.99 12.211-10.549 18.789-15.998 3.813-3.443-5.646-8.147-1.793-1.108-12.374 9.618-1 1.105-24 19.086-7.554 5.666-.991-.991 38.497-30.788 7.75-5.659 4.737 4.45 9.335-7.791 5.131-4.234-3.266-4.766-4.763-5.767-44.875 33.763-3.877 3.504h-2.077l4.955-4.762 14.328-10.738 5.537-4 10.135-8.118 13.676-9.882 2.613-1.857 4.747 5.518 10.964-8.612 1.271-1.797 10.411 13.248h1.189l4.693-4.409 27.811 27.758 3.176-2.636 10.202-11.776-27.098-27.437-16.405-20.566-4.249 2.812-24 17.279L266.15 863.9l-15.612 11-43.422 31-20.096 14.637-1.137-1.137.833-.705 25.928-18.795 4.399-3 8.673-6.151 73-52.243 2.047-1.606 9.953-6.897 1-1.109 8.108-5.494h.982l7.835 10.5 5.875 7 6.743 7.553 17.457-15.441 3-3.112 17.725-16 7.173-6.307-7.899-9.446-10.5-13.839v-.928l-6.602-9.479-7.496-13.5h-1.92l-44.483 22.223-.703.646 6.936 13.062-14.233 8.388-4.397 2.659 8.893 14.425-1.768 1.768-18.729 12.38.403 4.95-15.403 10.096-35 23.782-32 21.784-22.586 15.086-1.028-1.028 8.614-5.853 40-27.069 27-18.452 28.5-19.111v-1.513l-3.656-4.515-12.486 8.293h-.647l-16.247 11h-.907l-8.558 5.839-23 14.76-15.542 9.901-18.67 12-19.788 12.683-19.882 12.817-2.118-.064 5.518-4.116 23.482-15.091 14-8.77 31-19.976 35-22.62 9-5.437 21.338-13.792 1.099 2.865h1.649l16.315-10.5 3.202-2-13.33-22-2.8-6.5h-1.994l-77.979 39.138v2.126l4.111 6.651-12.611 6.346-13 7-2.617 2.428 4.152 7.038-2.536 2.019L148.65 885.9l-3.569 2.156 4.384 7.43-.748.691-16 9.409-.771.752 3.207 4.895-9.436 5.895-18.798 11.47-7.437 4.303-24.049 14.677-2.717 1.677-1.618.146 1.054-1.705 32.495-19.636 1.931-1.159 21.138-13.008 5.452-2.805-4.385-7.801-2.068-1.68-14.951 8.793-2.049-.105 4.846-3.395 13.663-7.573 2.347 5.15 2.771-1.063 13.873-8.102v-1.103l-3.584-5.309-3.871-7.5h-1.78l-30.265 16.237-8.327 4.852-1.003-1.623 15.33-8.104 24.624-13.362 2.376.045 3.274 6.455 2.726-.661 37.323-21.235-7.853-15.62-65.079 33.24-1.224-1.224.833-.654 66.265-33.195 3.554 7.882 4.181-1.292 23.241-12.74-7.861-15.002h-.811l-18.569 9.182-27.844 12.808-.881-.881L200.51 823.4h.403l3.608 8h.974l78.961-40.087 2.246.749 7.069 12.226 1.32 1.32 16.812-9.689L300.94 774.9l-2.693-4.384-23.53 10.722-19 8.341-8 3.62-45 19.946-57.25 25.358-40.75 18.15-12.64 5.748h-.714l-14.646 6.736-15 6.456-10 4.549-17 7.513-10 4.477-23.631 10.471-1.085-1.085 6.716-2.905 12-5.399 9-3.998 10-4.556 16-7.05 54-24.052 34.503-15.108 8.497-3.87 19-8.355 10-4.556 57-25.272 13-5.801 48-21.375 2.176-.91 5.824 13.036 1.705.054 46.732-24.115 5.564 10.383 8.5 12.996v1.735h2.075l35.425-24.323 1.503-1.28-12.871-22.558-3.632-8.832-2.251-.008-11.749 5.068-4 1.864-30 12.17-33 13.773-49 20.177-4 1.884-35 14.246-36 14.96-16.632 6.981-2.118-.706 7.75-3.344 27-11.26 22-8.874 4-1.842 32-13.178 4-1.858 23-9.122 4-1.85 38-15.825 13-5.152 22-9.291 26.604-10.873 1.426.881 6.922 14.672.429.714 25.619-13.668 10-5.54 12.25-6.267-6.561-14.24-6.235-21.459-2.091-21.541 1.267-14.061-16.629-2.417-12.708-1.304-1.762 2.782-.031 16.5h-7.75l-6.38 1.276 1.232 13.224.847 4.148-15.842 2.573-.608 7.279-2.5.361-4.5.687.324 1.953 1.394 7.479-2.719.854-5.216 1.134 2.704 10.423-2.488 1.58-2.5.031v1.513l1.887 6.581-4.954 2.257.566 4.08-13.433 4.985 1.03 4.104-16.597 6.318.252 3.007-15.252 5.971-5 1.315 3-2.107 14-5.293 1.507-1.338-2.584-3.534-28.26 10.141-3.663-.141 7-2.668 25.801-9.186 2.593 2.152 12.706-4.292 2.614-1.615-1.373-6.25h-1.747l-4.594 1.816-13 4.012-5 1.396 2-1.979 10-3.24 1.444-.157 10.527-3.848h1.295l1.056 4.038 11.677-4.309.435-.331-2.279-7.424-3.419 1.085-36.487 10.961-2.75.84v-1.694l13.5-4.099 14-3.917 16-4.893 1.436 3.743h4.064v-1.19l-4.195-13.81-1.305.053-14 3.732.156 4.19-3.156.985-49 12.513-9 2.321-44 11.258-6 1.768-5.544 1.229 2.031 3.795-9.487 3.091-8 1.952-7.5 1.903v-1.483l21.5-5.611 1.381-.74-2.177-6.456-.336-.466-6.368 1.826v-1.447l7.957-2.124 1.178 3.711 2.365-.031 15-3.802 95.25-24.766 2.25-.635v-.468l-2.192-6.288-4.308.992-14 3.19-5 .925-9 2.049-3 .646-5.5 1.404v-2.003l11.5-2.113 30.749-6.864.984 3.764 2.267-.016 15.545-3.72.72 1.236 1.394 6.5 1.341-.031 2.684-1.701-2.969-11.768-1.424-8.69-7.292.912-22 3.302-6 1.64.56 3.949-20.56 3.572-2.5.753v2.83l-4.5 1.206-1.618.027 1.236-2h3.605l-.956-5h-5.1l.878-.878 5.455-.989v2.868l2.5-.016 13-2.172 3-.66 1.75-.077 1.75-.075v-8.123l-8.5 1.14-20.852 2.983-4.148-.061 3.115-1.823 14.885-1.228 7-1.791 9.5-1.103v4.006l5.5-.04 12.5-1.96 11.5-1.854 7.338-1.243 2.34 11.27 5.318-1.335.726-.726-2.429-17.111-1.293.035-18.668 1.966-5.332.842-14.76 1.386 1.216-1.968 18.543-1.371 12-1.789 9.348-.838 1.338 9.729 5.314-1.268 1.232-.676-.642-4.548-1.1-7.073-31.869 2.377-7.915 1.337-1.128-1.825 30.423-2.552 12.5-.997v6.507l12.791-1.027 2.42-1.496-1.51-15.251.403-17.861.977-1.58-4.582-.958-12-1.125-14.5-1.265V654.4h-13v7.909l-6.5 1.101-30 .489.143 4.35-17.143 1.227-6.5 1.013v2.909l-4.5.054-29 1.881-34 2.055-16 1.05-29.941 1.852-.702-.702 5.643-1.2 105-5.982 2.5-.946v-5.144l-22.5 1.148-61.391 1.913-17.109 1.315v-1.994l41.989-1.414 3.511-.64 56.5-1.445v3.198l8.5-.014 13.5-1.275v-8.037l-93.5 1.033 28-1.498 66.5-1.075v4.865l25.5-.018 10.582-1.271-.582-14.211-7.5-.621v4.426l-23.182-1.324-1.067 4.081-31.847-.826-1.237-1.237h32.472l-.639-4.5-18.981-.581-2.019-2.183 6.75 1.264h15.75v2.699l21.341 1.209 1.659-1.025v-5.624l-9.669-1.283-30.831-1.901-20-1.353-9-.46-1.618-.261 1.256-2.033 1.576.974 35.786 2.149 9 .725 24.5 1.456v4.729h10.024l-1.297 8.108 11.522-.608.701-14 2.123-16 .427-3.862-13-2.699-15-2.784-16.5-3.155-15.5-2.884-6.367-1.339-1.376 7.337-10.953-1.369-3.303-.245-.269 3-.231 5.587-7.5-.587-.627 6.5h-2.873v3l-7.5-.32 6.5-.807V622.4l-3.5-.237-1.5.237v-2.217l5.376 1.349 2.56 3.367.064-7.25 1.25-6.25h-7.25v3l-5.5-.128-12-2.831 16.305 1.151 1.324-4.173-1.126-1.821-12.004-1.393v-1.926l9.461 1.419 5.039 1.388-.564 3.213 7.064 1.325v7.777h5.674l2.031-15.5-.639-.768-24.427-4.761-1.138-1.2 9 1.402 15 2.874 4.429.973-.756 2.48-1.101 6.388 9.428 1.28 3.236.883 1.416-9.551.831-4.466-4.482-.952-14.5-3.352v-1.864l4.5 1.476 16 3.254-.578 8.096 12.578 2.205 5 1.096 7 1.11 8 1.839 23 4.186 11.676 2.309-1.282 11.064-1.073 6.268 16.679 2.11 14 1.622-.732 18.601 12.406-.601.842-14 2.136-14 .779-5.708 1.207-3.802-2.638-.801-59-14.425-3-1.703 2.122-.061 59.878 14.945 4.169 1.01-2.449 12.545-1.147 6.388 8.428 1.203 7 .846 12 1.179 4.124.827-1.594 14.556 1.97 10.867v10.908l11.5-1.287 9-2.072 22.983-4.416-.658-22.076 4.253-17.924 6.23-13.525-.808-.756-54.5-32.985-12.5-7.53-1.318-.709-8.566 16.505-8.445 23-3.671-.28-14-3.943-56-15.342-14.708-4.365 2.088-.696 44.621 12.186 10 2.902 11 2.829 18.7 5.41 1.615-1.7 6.218-18 10.301-20 13.637-19.331 13.056-13.669-.527-2.475-18-19.482-16-17.088-10.428-11.259L382.41 507.9l-8.379 10.675-4.315-3.986-20-15.118-3.435 4.429-10.848 16-8.405 14.67-4.517-1.134-10.296 21.682v1.412l-4.124 9.586-23.376-8.711-1.18-.004-2.668 8.5-1.236 1.484-26.917-8.954-.604-.03-2.03 5.822-22.366-6.923-14.5-4.128v-1.589l9.5 2.624 23 7.042 3.742.653 2.686-8.972-1.503-1.503-14.673-4.991-1.752 1.083v2.882l-.5-.018-19.647-6.773 1.731-1.07 16.519 5.846 2.764-6.485-7.367-3.352-3.382-.149-1.236-2 2.618.002 10 3.784.586 4.725 17.414 6.173-.627 6.094 25.36 8.323.891-.891 6.033-15.709 1.077-3.5h-4.098l-1.27 4h-2.699l-9.666-4.171-41-15.683-9.783-4.197 1.023-1.023 10.76 4.128 4 1.809 21 8.052 23.216 9.083h1.98l3.282-8.355-.478-.416-21.795-9.453-1.804 3.224h-2.518l-3.882-3.094 6 1.119 2.479-5.379-.479-.32-13.799-6.36.933-.933 12.866 5.48 2.525 1.621-1.833 3.276 21.308 9.103 2.424 1.559-1.897 4.989 4.983 1.894-3.962 10.427.453.276 21.431 7.536 1.148.307 6.571-16 13.284-26.08 13.104-19.876-.976-2.544h-1.865l-12.498 19-2.199-.071-4.994-2.764-2.506 2.08v1.993l-7.126 11.731-9.443-4.785-3.251 5.664-16.68-8.119-19-8.96 2.141-.817 32.816 15.899 5.252-9.352-3.93-3.5h-1.457l-2.276 4.995-53.545-27.217-20.616-10.996.909-.909 26.706 13.441 45.759 23.761.284-.575 4.4-8.17-24.442-13.817-9.636-5.013-1.959 3.493-15.405-8.223-2-1.995 4.803 1.456 11.197 6.689 3.584-4.245-.584-2.863-10-5.356-9.5-5.646v-1.856l4.5 2.773 18.492 10.419-1.953 3.649 14.461 8.596 15 7.973 5.203 3.136-1.562 4-.141 1.449 6.034 3.12-2.188 4.088 1.051 2.739 6.289 3.252.52-.647 9.336-17 8.881-13.43-1.851-1.144-5.201 8.238-2.371-.919-17.993-11.308-1.813 4.062h-2.659l-13.172-8.062-7.904-5.23.946-.946 19.803 12.239 1.792-.025 4.669-7.206-2.085-2.085-3.015 2.502-12.024-7.304-1.164-1.883 1.618.051 10.907 6.949h1.272l2.396-5.258-.575-.472-8.5-5.294v-2.093l1.687 1.042 9.954 6.699-2.096 3.323 3.956 2.932-2.675 4.375 2.675 2.539 14.861 9.153 2.21-1.834 9.691-14.183-.762-.585-7.388-5.495-2.593 4.152h-1.582l-14.989-11.281.999-.999 14.772 10.337 5.512-7.226-1.731-1.639-43.03-33.692-7.727-6-11.088-8.498-3.346 3.028-5.414-4.259 1.093-1.093 3.745 3.389 6.39-7.278 1.162 1.162-2.726 3.285 5.941 4.862 15.73 12.118 3.27 2.625 12 9.668 12 8.981 11.051 9.01 4.931 3.232-2.849 5.323 3.867 2.714 4.769 3.868-5.526 8.35 2.348 2.83-9.092 13.557v2.557l3.869 2.07h1.067l12.342-18.5 14.722-18.658v-2.152l-3.884 3.515-1.944-.705-15.475-13-16.697-14.648v-.852l1.5.002 7.617 6.779 19.573 16.469 4.431 3.75h1.502l4.542-6.143-11.666-10.827-2.333-.03-.951 2.5-4.906-5-28.284-25-20.044-17.815.913-.913 5.605 4.382 13.892 12.346 13.108 11.829 9 8.227 10.571 8.817 4.139-4.139-9.619-8.735-29.016-27-18.075-17.473 2.084-.027 27.916 26.29 17 16.235 11.709 10.518-2.354 2.836 13.637 12.92-3.638 4.02 3.468 1.941-8.822 10.74-1.011 1-5.636 7.56 4.151 3.44-9.145 13-9.859 16.688v1.979l2.5-.793 9.377-15.874 12.544-18 8.08-9.884 19.5-20.408v-1.802l-8.031-7.842-7.311 7.311-53.624-52.122.836-1.353 52.629 51.443 14.342-14.136-11.374-13.207-5.968-6.862-9-10.298-14.914-17.381-8.512-9.404-6.555 5.945-1.651 2.558-19.151-20.141-4.346 4.083h-1.399l-19.964-20.5-.008-1.964 20.5 20.392 8.5-7.093v-2.524l-4.047-3.663-2.353 2.353h-1.992l6.392-6.595v-1.415l-12.981-14.884 1.538-.951 14.591 17.023-3.49 3.856 5.597 5.842-5.441 4.68 7.685 8.181 9.673 10.362 8.327-7.039 8.916-7.826-5.759-7.734-.648-.825-4.857 2.213-5.52-7.388-11.224-13-6.576-8.5h1.904l21.605 26h1.39l5.228-4.112-8.026-10.153.986-.986 5.582 6.563 3.438 5.143-2.938 1.644v1.683l7.864 9.516-9.267 8.39 15.903 17.869 15 17.762 19.5 22.077v1.519l-7 5.585v2.084l9.022 8.855-16.682 17.062-11.585 13.5 2.363 2.847 20.149 15.404 18.634-19.751.099-1.428 23.725-20.572 14.223-9.886-.777-.777-4.671 2.451-7.288 5.711h-.726l-14.986-20.102-16.065-21.398-4.653-6.615.984-.984 17.734 23.329 7 9.613 10.164 14.067 22.512-14.802 1.955-.652-14.3-25.956-2.379-2.477-22.378 13.977h-1.007l-19.551-27.5-10.484-15-5.647-8-7.77-11-11.232-16-9.294-13-5.589-7.985-43.115-61.015-9.526-13.692.991-.991L290.83 279.9l8.886 13 1.006 1 5.994 9 1.578 2 18.422 26.213 32 45.329 12.721 17.457 7.245 11 1.678 2 19.356 27.37 2.144 3.513 7.724-4.883 1.798-1.221-9.415-14.779-.842-.924-3.882 2.424h-1.923l-55.502-83.121-13.898-20.917 1.141-1.141 68.15 102.058 2.122 1.311 7.883-5.463v-.879l-8.295-14.349-.532-.66-5.053 3.311-5.332-8.651-4.586-7-14.951-24-23.533-37-3.966-6.585 1.086-1.086 9.662 15.291 9.139 14.381 21.861 34.529 3 4.877 7.823 12.594.562.718 5.924-4.218h2.191v-2.039l-19.169-32.956-4.44 1.114-22.383-37.46 1.266-1.158.841 2 20.457 33.857 2.126.709 4.556-3.689-8.959-15.877-5.065-9-5.4-9.5h1.69l2.817 4.5 6.043 11 10.622 18.756v1.644l-3.284 1.838 7.033 11.762 9.973 17 3.497 6.826-4.447 3.354 5.335 8.451 3.893 6.93v1.601l-4.808 2.573 9.095 14.265 1.428 1.616 10.704-6.311 19.725-10.093-1.119-4.459-7.751-16.753-28.574-62.5h-1.632l-18.036 8.844-17.294-33.344-2.523-4.099-17.936-33.901-10.414-19.599.791-2.373 5.04 9.972 24.973 47 5.303 10 12.185 23.5h1.642l17.699-8.27 19.198-8.23-7.604-20-29.868-77.925-2.423-.808-4.303 2.1-23.825 10.208-1.31-1.575-20.214-43-8.349-18-.564-.595-11.182 5.484-.556-.889-21.494-43.5h1.532l20.924 42h1.134l15.904-7.748 4.5-1.386v-2.432L326.13 136.9l-3.688-8-5.498-12.5-.462-.526-1.765.57-8.718 3.956h-1.568l-1.038-2.704 1.301-.489.669 1.712 11.854-5.006 8.5-3.791 3.076-1.215-1.459-2.513-4.958 1.925-4.079 2.081h-1.813l-6.053-13.5.974-1.612 5.951 12.583.581.581 15.781-6.286 3.447-1.808-2.873-6.458-8.953-23-2.622.264-5.262 1.393-5.559-14.169 1.054-1.054 5.651 13.736L331.717 66l.538-.305-9.245-23.795-1.007-2.5h2.12l1.872 6.5 8.068 20.492-7.529 3.508 11.751 29.705.432 1.959-4.5 1.824-4.937 2.151 1.93 3.862-7.068 3.027-6.162 2.558 4.794 10.658 7.224 16.256 6.463 15 3.498 7.342-11.726 5.262 2.771 6.395 9.448 20 10.349 22 5.915 13.446 1.441.054 10.559-4.747 19-8.046 28-9.523 1.627-1.411-4.925-16.773-9.285-30-5.807-19-10.156-33-.837-2.357-13.061 4.247-1.193-1.193-23.097-69.257-3.266.966-5.5 1.312v-2.38l-12-34V4.999l1.914 1.914 11.2 31.986 1.708 1.722 13.253-4.41-1.337-4.312-6.865-22-2.873-7.54V0l1.807 1.9 8.584 27 .479 2 1.98 6.463-7.711 2.076 2.362 7.646 20.757 62.101 5.243-1.684 21-6.297.424-.396-5.075-17.91-2.696-10-12.218-43.797-.979-1.583-5.913 2.061-2.543-.898 14.216-4.283h2.498l-1.151-3h1.704l1.032 3.947-6.821 1.28-.883 1.429 5.031 17.844 12.074 43 1.635 6 2.132 6.868-.466.361-13 4.018.321 3.753 2.999 10 5.027 16 11.234 37 11.075 35.678-1.317 1.317-29.339 10.167.656 2.838 35.021 91 1.913 5 .411 1.844-17.451 7.207-1.9 1.949 11.948 26 3.744 8 8.159 17.699v.683l7.765 16.618 7.134 15.563-18.899 9.388v1.109l15.927 28.748-.97 1.569-11.064 6.33.644 3.292-11.037 7.465-17.842 14.535-.747 2.267 29.162 31.343 10.574 11.39 6.4 7.317-15.655 16.683-11.449 15.829.71 2.171 23.847 14.491 45.321 27.414-7.021 13.943-2.778 9.152-.022 3.273 9.5 1.312 10.414 2.215-1.153 15.201 3.5 14 5.991 12 7.372 8.119 3.844 3.611 3.953 2.636 2.079 1.118 4.67-8.177-4.67-3.143-8.717-9.165-3.024-4.707-2.764-6.747-1.541-7.579-.696-7.463.732-7.507 1.303-6.199 5.69-11.799 11.018-11.049 6.938-3.87 6.965-2.905 9.284-1.141 10.29.198 9.523 2.594 9.036 4.639 6.964 5.831 10.068-9.298 26.933-24.996 19.18-18.383-4.835-5.439-6.345-5.439-14-10.032-9.614-4.665.888-3.046 1.393-3.375-7.666-3.849-16.634-5.485.826-2.291 3.57-13.373-1.104-2.876-8.886-1.332 1.843-9.418 1.562-9.357-9.179-1.075-10.634-1.275 1.554-18.294.08-9-22.249-.563-1.229-7.437-.022-8.591-6.5.995-12.23 1.164-2.491-18.569-.576-4-2.358-16-2.692-19-2.177-16-2.203-12.5-3.274.074-13.539 2.62-3.22-15.194-1.444-5-3.798.127-6.004 1.224-4.656-19.024 1.113-1.113.765 2.786 2.122 7 1.356 8.616 5.305-1.067 13.61-2.274-.61-6.275-4 .197-5 .803-.385-4.317-.115-1.317-3.782 1.2-2.218-6.364v-.702h1.861l.639 4.5 4.5-.237.155 1.615 1.117 4.27 4.729-1.187 9.053-1.241 1.094-1.769-1.26-5.735-3.613.945-1.079-2.813-1.443-13.849 1.14 1.061 1.166 6.939 1.183 6.609 6.257-.609-.424-15 1.512.194.178 6.806 1.034 8.429-3.94 1.251.59 8.171-1.95.475-5.75 1.276 1.038 7.741-9.981 1.373 1.214 5.286 2.262 13 1.216 1.373 15-2.619 13-1.614 3.514.488 1.088-2.836-1.602-22.79-7.206.625-1.384-10.628-2.788-27-2.11-21-1.177-9 1.93 2 1.173 14 2.176 19 .806 8 2.044 19 .035 3.5h9.836l3.164-1.214.014-11.286-2.315-25.5h-6.7l-.109-4.5-.666-8-2.326-29-.701-8-1.262-18-.985-9 2.064 3.349 2.988 40.651 2.255 31 .412.504 12.191-1.274-.142-13.73h-4.469l-1.222-6.108-.937-30.392 1.761 9 .17 18 1.209 7.311 4.269.766 3.5-.724v-24.187l.731.833 1.366 25.5h-5.097v16h-6l-.014 11.5 2.332 25.686-2.817 1.784-4.795.031 1.609 19.5.186 7-15.908 1.575-.915.915 2.279 17.51 2.113 14 .821 6 2.127 14 3.529 25 .583 4 .82 4.149 12.55-1.465 23.5-1.423V427.4h-7.721l-1.261-10.5-.017-54.5h1.51l.077 24.5.413 39.5h17l.39-7.5.391-7 1.493-19.5h-9.274v-10.867l.25-.983 5.75-.15v-4h-3v-18h2.275l-1.379 17h6.104l.031-8.5 2.057-3-1.338 12-.888 1.533-1.803-1.114-1.247 4.967-4.312.614-.607 8.343 11.607 1.4 4.782.257.8-2.245-3.653-.955 1.695-16.799 1.804-8-1.21 18-.219 6 5.213.605 1.252-11.605 2.919-24.717 1.387-1.283-1.235 12-2.993 25-.043 2.635-4-1.27v4.395l-8.827-.995-1.153 6.235-1.955 27.586-1.185 1.918-7.606-1.216-.919 4.809.146 13.4-18.5.002v14.765l32.5 1.177 12 1.776.266-.219 1.393-6.5h-3.995l-2.85-1.094 1.749-10.406 2.87-20 3.208-21 2.771-19 2.2-14 .753-5 2.155-14 3.143-21 2.697-19 3.122-21 1.847-6 .172 2.355-2.114 15.645-.904 5-5 33-2.916 20-2.195 14-.736 6-4.155 27-1.088 7-.907 7-2.837 17-1.311 12-.888 3.24 6.552 1.413 5.434.957 1.1-4.61 3.865-17.944-2.399-1.525-3.576-.031.977-7.5 2.112-11 1.077-5 1.699-9 3.291-17.904 1.87-8.096.049-5.5h-3.25l1.364-6.5 3.912-22.5.965-5.5 1.019-5 4.914-28 2.016-11.773 1.06-1.06-.035 2.833-2.912 17-2.932 17-5.093 29-.878 4.319-1.377 9.181h6.005l1.23-6.5.852-4 8.375-41 1.811-9 1.064-6 1.78-8 1.216-6.939.894-.894.747.833-13.731 67.55.22 1.45-.39 1-.891 4-.68 4-1.493 5.5h-3.783v.853l-3.871 19.647-1 5.519-4.19 22.481-1.939 8.386v4.892l7.5 1.329 3.5 1.028V430.4h-4.038l.996-4.5 4.256-18 .506-2 1.53-8.464 1.887 1.166-1.267 3.298-3.084 14-1.913 9-.911 4.5 2.539.027 4.361 1.17 2.518-8.405-3.309-1.852 1.822-4.44 5.371-22 1.676-3 .02 3-6.631 25.495 1.005 1.005h3.5l4.055-13.5 4.223-15 4.216-14 .816 2.429-5.097 16.571-6.715 24.833-4.331 1.602v3.97l-2.382 5.228-3.549-.928-1.16 3.654-6.651-1.079-1.13 5.72-2.087 10-2.185 8.082-6.857-.801-.153 2.719-.697 3.683-.909.909-16.688-2.093h-5.331l-1.441 23.987-.28 1.513 11 1.298 8.814 1.223 16.46 3.979 1.727-.014 3.336-10.486 8.285-27 1.727-5 6.398-21 2.025-2-1.138 4-2.955 10-5.026 16-9.368 30-2.029 7.5h-1.536l-18.183-4.723-1.086 6.223-1.809 10 1.357 1.299 17.663 4.371.71-.71 10.395-30.961 16.609-48.71 1.123-1.123v2.297L616.086 478.9l-12.272 36.669-6.097-1.381-4.301-.983-3.076 10.695-.623 5.571 15 5.047 16 7.799 6.97 4.542 7.907 5.086 2.366-3.499 2.243-2.844 1.786-2.64-7.689-5.145-7.083-4.71v-1.743l8-13.168v-1.744l-6-3.103v-.999l6.964-13.828-14.964-7.197v-.594l8.061-19.813-3.168-2.317 7.163-18.548-2.315-1.431 4.082-11.722 6.876-19.14 2.388-3.86-1.341 6.934-1.67 3.066-8.076 22.49v1.796l3.084 1.183 3.966-9.253 1.02 1.02-3.872 9.763-2.759-.487-6.519 17.24.837.837 5.235.41 11.665-27 3.796-9.975 5.666-11.025-1.107 5.3-19.268 45.2h-4.316l-7.57 19.192.642.549 9.754 4.259h.712l5.2-10.262-2.93-2.93 13.808-28.782-1.144-4.558 7.273-15.968 5.096-11 .796 2.199-11.066 23.551v2.536l3.062 1.175 16.066-32.461 1.8-.643-16.672 34.643-2.924-.511-14.226 29.511 5.071 2.657.481-.657 21.807-41.606.618 1.854L650.97 473.9l-6.884 12.558-3.321-.558-5.567 10.297 10.514 5.94 2.176-3.237 28.465-47.684 3.589-6.316 24.546-41 3.416-6 21.081-35 3.934-7 9.704-15.692-2.909-1.751-2.886-1.914 2.45-5.376-3.524-2.577 3.391-6.69 6.233-11 5.013-8.657 1.038 1.038-13.596 24.392 4.603 3.727h2.53l23.8-40.5 11.778-20 4.171-7.758.645 3.246-4.145 5.82v.889L763.956 301.9l-3.283 6-15.676 26.453-3.822-2.046-1.959 1.211v2.71l10.018 6.164 8.637-13.493 14.845-24.483 2.482-.016-6.899 10.5-15.966 26-2.784 3.765-5.396-3.535-.668.771-5.377 8.63-3.628 6.37-30.569 51-3.636 6.454-7.783 12.546-45.523 76.5-2.254-.008-6.548-3.993h-.677l-6.515 13.233 2.74 1.736 1.543.031 8.038 5.319 1.715-1.819 19.801-30 10.804-16.5h1.766l-.667 1.5-31.755 48-.733.821-6.933-3.734-.779.912-7.3 12.607.101 1.393 14.399 9.421 13.609 11.415 4.3-4.3-5.909-6.19-14.583-11.187.954-2.487 10.826-15.673 16.724-24 7.726-11.473 1.852-1.145v1.728l-13.853 19.89-4.314 6-17.773 25.787 1.14 1.845 8.3 5.945 17.769 17.423 8.231 10.947 2.207 2.872 17.347-11.424-1.349-2.396-4.943-6.679 7.556-6.321 5.834-5.025-14.04-15.936 7.205-6.599-5.481-5.721 2.164-1.337v-3.772l-10.862-8.848 5.166-7.603-5.527-4.754 3.576-3.951-2.232-2.231 6.849-9.221 1.586-2 5.944-8.457 1.57-.043-1.915 3.5-7.655 10.302-3 4.279v2.391l3 .522 9.366-12.495 7.745-10 7.651-10 20.045-25.527.927.927-16.978 22.604-6.756 8.256-11 14.455-9.644 12.22-1.662 2.97-2.776-2.304-2.329 3.73 8.412 6.81 2.58 1.526 4.42-5.662 9.789-11.006 7.045-8 3.995-4.479-3.378-3.732 9.293-11.289-1.17-1.41-1.171-1.41 6.517-7.679.579-.833 1.202 1.202-5.473 7.175 3.428 3.788 7.123-7.884.926.926-7.551 9.034-3.057-1.711-7.516 8.304-.082 2.151 5.157 4.845 6.87-7.496h2.084l-8.544 9.918-3.757-3.4-5.086 5.981-8.225 9.226-13.949 16.218-5.169-4.952-5.387 5.623 10.871 9.386h.946l13.688-14.473 14.37-14.99 1.297 1.297-3.667 3.72-5.792 6.947-.698-.49-13.902 14.583-3.895 4.952 3.636 4.49 5.461-4.697.322-4.376 7.774-7.961h2l-7.406 7.584v2.298l2.199 1.359 11.749-11.626 1.544 1.544-13.992 12.678-1.908-1.844-7.576 7.398-5.707-5.468-2.25 2.711 9.573 9.429 16.368-14.167v1.723l-16.128 14.634-5.49-5.26-5.705 5.955 9.654 10.553 1.584 1.815 3.109-2.581-2.301-2.772 3.749-4.143.027-2.993 15-12.809 1.5-.018-.166 1.5-12.138 10-2.125 3.404 1.525 1.525 2.649-1.929 11.308-8.78 1.005 1.006-14.048 11.493-2.594-.996-3.834 2.804 4.224 4.224 7.687-5.75 19.8-15.54 1.074 1.074-1.867 1.688-25.331 19.618-1.331 1.04-3.667-2.29-2.321 2.797 8.354 11.064 46.297-31.303 29.385-19.805-2.206-4.842h-1.679l.02-1.5 7.006-4.771-2.335-2.813 1.815-1.653 14.6-10.495 1.4 1.507-2.536.905-2.464 2.362-10.439 7.584 2.42 3.875h2.163l13.856-9.609 17-11.703 3.512-3.01 1.488 1.556-3.626 2.265-15.374 10.854-18.764 12.838-1.606-2.599-5.13 2.746v1.802l6.096 8.86h2.095l6.309-4.352.785-.599-2.286-2.754 14.192-9.437 1.143 1.143-.833.707-11.5 7.268.064 1.525 2.84 3.751 3.096-1.188v1.723l-3.254 1.248-2.654-2.202-10.208 5.668-2.813-3.784-.661-1.983-77.678 52.4-1.477-1.633-5.915-8.33-12.201 9.443 9.988 14.887 1.534 2.647 10.838-6.427 7-4.054 8.604-4.896.958.958-4.935 3.233-7.128 4.037-7.5 4.334-8.402 4.782-5.368-8.616-.541-.643-18.442 12.545-5.248-6.207-11.572-14.195h-2.579l-4.729 5.034-7.616-7.437-5.867-4.654-4.12 4.743-3.692 4.57-5.893-3.533-4.93-3.533-11.402-6.241-2.304 4.305 2.706 1.823 8 4.148 10.316 7.701 5.484 3.952 8.895 8.621 12.384 16 5.074 8 5.847 12.4 2.527.1 3.473-1.939 20-8.161 4-1.8 23-9.153 4-1.877 18-7.291.349-.321.349-.321-8.319-17.348.311-.267.311-.267 6.522-3.317-1.082-4.437 14.559-7.818 34-18.945 14.5-7.87-.02 1.632-16.487 9.256-44.5 24.483.064 2.262 2.892 3.821 69.545-35.251-.39-3.582 8.39-4.629 38.5-19.944v1.586l-18.5 9.73-25 12.9-1.685 1.653 2.256 4.215h1.876l44.34-22.071 2.214.816-48 23.39-3.513-2.16-70.829 35.525-2.195-3.532-5.924 3.063 5.112 11.469 5.701 14 3.419 9.5h2.43l5.982-2.085-5.627-16.415-.056-.304 6-2.092-.07-2.604-2.858-5-.07-1.09 9.035-3.726-1.169-3.684h2.016l16.618-7.793 47-21.479 25.968-11.739 2.032.787-7.597 3.291-13.403 6.125-24 10.996-12 5.565-23 10.462-11 5.084-.547.414 1.261 3.286h1.77l26.516-11.202 21-9.004 6-2.659 19.703-8.265.963.963-9.118 4.033-11.548 5.014-36 15.255-6 2.674-12.676 5.29-2.324-1.898-7.584 3.046.584 1.276 5.619 14.331 5.881-2.05v-1.674l-1.885-4.959 7.385-2.893 61.566-23.63-.566-3.882 14-5.414 7-3.148 39.584-15.453 1.193 1.193-5.777 2.158-12 4.713-26 10.271-6.302 2.915h-1.032l-9.157 3.925 2.312 5.075h1.371l16.808-6.179 5-1.589 28-10.378 30-10.978 15-5.693 13.863-5.153.97.97-.833.646-26 9.461-4 1.78-14 4.912-28 10.347-30 11-4 1.729-4.647 1.307-2.353-3.195-65.694 25.279-1.694.629 3.727 10.606 3.194.653 8.467-3.061 46-14.306 41-12.981 13-3.965 38-12.046 14.944-4.795h2.806l-1.202-5.5-1.199-4.185 32.651-10.668 1.9-1.647h2.6v1.767l-4.5 1.031-29.877 10.246-.708.708 4.486 15.248h2.816l-1.208-4.814-1.174-3.059 16.165-4.987v1.544l-8.5 2.687-1 .227-4.584 1.563.965 3.339 2.118 8 1.66 2.568 3.226-1.238-1.863-4.901 2.478-.933 13.5-3.727v1.59l-11.5 3.235-2.263.754 2.176 8.154 3.087-.022 9.818-2.978h1.682v1.735l-10.5 2.383-5.236 1.07-1.288-5.13-4.906 1.865-.836-1.424-1.394-6.498-4.562 1.145-1.225-5.647-1.825-2.747-12.729 4.049-33 10.356-41 12.936-29 9.033-5 1.733-30 9.335-14.944 4.805h-2.193l-2.863-5.853-7.314 2.554-3.025-7.7-2.661.031-2.578 1.635 5.388 14.834 4.473 17 2.716-.359 35.493-7.552-.493-2.904 6-1.732 13-2.821 3.5-1.345v1.827l-20 4.578-1.007 1.629 1.221 3.18h4.656l4.76-1.81 11.87-1.441-1 1.072-15 3.077-6.5 1.13V602.4l-1.5.049-9 2.118-4 .805-10.144 2.096-4.856.898-10.502 2.742-3.998-13.423v-2.166l-1.954-1.208-8.248 2.221-.74-.74-5.933-16.6-.793-.793-48.832 20.126-6 2.623-21.841 8.73-.971-2.978-8.598-16.485-10.753-14.515-3.299-2.713-20.538 18.705-16 15.115-14.96 13.894-2.643 3.485-4.119 2.205-7.278-6.912-8-4.23-9-3.019-6.47-.249-6.904.298-5.702.943-7.019 2.766-5.18 2.799-3.741 3.044-2.89 3.077-2.579 3.065 18.144 14.727 15.274 12.5-1.122.84-18.811-14.777-14.741-12.395-3.665 4.832-3.333 8-1.028 2.21-.714 5.248-.319 5.252.205 8.407 1.468 5.478 2.272 6.439 2.22 3.561 2.813 4.405 5.948 6 6.843 5.192-2.735 4.133-2.776 4.982 3.851 2.097 3.81 1.944 12.169 3.153h15.403l11.308-3.256 9.902-4.982 5.771-4.262 3.327 4.287 9 11.55 11.583 14.163 6.417 7.73 1.34 2.129 6.966-5.313 9.695-11.546 1.44-1.081 9.885-16.447 6.317-15.173 4.157-17.011 7.201 1.298 20 3.034 18 2.708 41 6.362 8.5 1.071v1.957l-4.5-1.114-21-3.153-14-2.147-4.921-.673-21.079-3.304-24-3.818-4.341-.008-1.327 6.5-3.96 14-9.787 20-13.185 16.45-15.026 13.105-8.106 5.117-13.267 6.627-15 5.076-18.501 3.125h-13.84l-1.036 12.5-1.926 27 1.543 1.64 14.76-.041 13-1.256 15-2.932 12.611-3.75 1.903 5.006 3.216 9.833.27-.014 19-7.903 2.428 3.199.718 2.155 14.854-8.728 15.852-11.002 4.685 5.447 9.469-7.928 16.252-16.928 3.472-5.299h1.317l20.953 15.851 4-5.154 11.472-17.113.63-1.891 5.5 3.604 1.75-1.797 6.786-13 4.698-12 .643-.813 7.52 3.152 15.361 6.161h1.835l7.522-23.5.991-3.319.991-3.319 3.015 1.157 18.285 4.272 14 3.497 1.5-.907v-3.718l1.104-2.876 7.396 1.535 15 3.24 7.5 1.201v-4.145l1.928-1.191 29.572 5.861 7.5 1.303v-4.346l8.5 1.473 4 .762 9.546 1.286 1.265 2.047-7.811-1.395-12.711-2.106-1.531 1.689-1.296 5.5 2.538.153 3 .705 9.592 1.901 1.241 1.241-3.833-.012-7-1.806-7.216-1.22.873-4.565-12.657-2.422-20.647-3.974h-2.759l-2.083 7.5-.02 2.358 11.5 2.334 25 5.879 12 2.786 15 3.417 10.803 2.695 1.197 1.296-8-1.402-17-3.988-26-6.051-20-4.704-6.016-1.174.02-6.409-12-2.328-15-3.012-.441.41-3.243 12.661 2.408 1.488 17.277 4.467 10 2.896 7 1.843 84 23.054 3 .783 23 6.179 35 9.719 1.789-5.699h2.593l1.236 2h-2.983l-.986 3.5-1.266 6.306 7.616 2.345 2.786.895-1.071 1.071-11.335-3.295 1.279-5.825-2.659-.757-38-10.407-4-.812-10-2.976-127.701-34.915-.855-.855 2.13-5.603-1.658-1.658-32.709-8.123-1.41 1.607-3.494 13-3.991 12-4.998 12-8.815 18.598v1.531l6.5 3.302 16.635 9.084 11.877-25.016h1.526l14.502 6.093 1.46-.903 4.907-13.126 5.093 1.202 6.29 2.544 2.211-2.21v-3.267l1.12-1.121 10.38 2.978 5.5 1.036V749.4h.992l11.508 3.842 49 15.472-2.602.887-5.398-2.068-24-7.384-26.99-8.799-2.51 3.432v3.156l10.5 3.278 61.977 21.261 1.923 1.923h-1.12l-46.78-16.129-28-9.515.152-4.295-12.935-4.179-1.438 1.618-3.658 10.455 1.145 1.145 20.734 8.038 23.628 9.07 2.611-3.571 12.761 4.484 4 1.758 47 17.314 1.9 1.807h-1.704l-26.196-9.867-37-13.757-2.429 4.124-.036 1.582-.035 1.582 6.5 2.149 50 20.314 2 2.098-4-1.277-56-22.595v-4.551l-24-9.468-22.652-8.757.895-4.076 1.312-3.085-10.152-3.651-.681.736-9.364 23-1.858 1.9v2.573l6.5 2.804 39.089 19.085 2.52.637 4.391-9 3 .264 5.5 1.453V793.4h2.008l51.492 22.065 8 3.811-3.441.124-10.559-4.806-44.599-19.194h-1.463l-2.203 5.836 2.164 2.164h1.358l20.742 9.722 23 10.528.833.751-1.017 1.017-26.816-12.534-5-2.33-17.563-8.053 1.216-4.845-5.389-1.352-.546.597-8.908 19.13 13.922 7.614 1.836-2.744 1.856-3.225 20.577 10.617 3.16-4.093 12.84 6.509-2.342.805-10.104-5.12-3.054 5.907v1.857l6 2.485v1.784l-7.244-3.027h-1.006l1.104-5.521-17.634-9.479h-2.187l-5.168 10.199.317.28.317.28 10 5.234 13.208 7.506 23.537 12.918-2.201.734-18.544-10.462-9-5.035-20.098-11.179 3.559-6.094-15.961-7.782v-.666l5.134-10.132-.722-.722-47.913-23.309-.55-.487 4.243-9.783 1.806-4.626-12.955-5.874h-2.03l-13.224 26.5-12.974 20.448.684 1.903 18.799 13.283 1.201-1.731 6.588-9.392 4.571 2.995 2.642-4.937 3.116 1.744 2.298-3.143 24.785 14.72.833.61-1.107 1.107-19.726-11.774-4.296-2.293-3.217 4.909 14.878 9.552 12.335 7.632-1.107 1.107-6.111-3.739-22.028-13.783 1.18-3.717-1.635.016-4.466 7.822 8.963 5.662v1.5h-1.14l-9.36-6.324-.771-.613 3.08-4.701-3.586-2.24-6.067 9.76 24.844 17.305v2.057l-3.895-2.744-8.605-5.991-13.427-9.451-2.99 4.269 1.006 1.628 29.999 22.29-1.052 1.052-8.912-6.796-19.398-14-4.125-3.242 3.645-5.564-4.746-3.689-16.433-11.263 2.253-4.243 9.68-14.647v-1.608l3-2.49v-1.456L764.966 772.9l-.81-2.086 12.893-26.914-1.338-1.273-18-7.028-4.5-1.334v2.343L740.173 762.9l-7.721 12.304-7.241 9.484v2.523l18.839 14.69 72.208 55.984-1.977.659-17.57-13.508-7-5.649-27-21.024-14-10.965-21.243-16.497-5.642-4.13 5.884-7.713 11.324-17.158-3.206-2.5h-2.15l-6.797 11.5-13.51 18-13.411 14.597 25.814 26.403 20.365 21 10.596-10.462 14.692 14.462 9.284-10.467 6.562 5.16 2.931-2.433 7.551 6.739 7.779 6 8.628 7.352 4.429 3.102-1.183 1.183-8.697-6.656-18.638-15.532-3.678 4.541.932 1.508 17.21 14.502 6.173 5.305-.658.672-.658.672-18.335-16.164-6.98-5.324 1.1-4.381-4.184-3.781-12.657 14 1.826 1.853 4.082-3.694 5.656 5.419 2.626-3.164 6.654 6.449-.978.978-5.042-4.736-4.324 4.324 3.684 4.071h-2.004l-4.318-3.745 3.079-2.555-4.415-4.7h-1.55l-5.431 7.121 14.33 14.426v1.909l-16.946-16.858 3.092-4.041-2.13-.785-2.399 1.804.602 2.883-4.231 3.959 8.626 9.082 2.886 3.825-2.199-.825-11.732-12.733 4.435-3.592-1.091-2.842 9.298-8.57-13.623-13.728-19.089 18.465-.534 2 13.534 15.157 10.769 12.282 2.849 4.068 4.115-2.202 3.148 3.148-1.333 1.333-2.548-2.112-4.683 3.795 7.183 8.391v1.885l-3.076-2.553-6.13-7.74 2.482-2.99-3.776-4.461-15.06-17.001-10.356-12.175 10.833-9.825-47.887-48.76 9.654-9.24 9.618-11.842-5.964-5.158-13.757-10.791-9.08 10.791-9.021 9.187-15.341 12.813-14.638 10.237-16 8.178-2.674 1.811 4.42 10.275 1.254-.058 16.489-8.66 1.723 2.218 6.002 11 4.482 7.497 2.304-1.383 10.545-6.704 1.843 1.139 9.705 14.451 7.018 10 6.564 9.615 5.08-3.328 4.383 5.497 5.362-3.513.066 1.73 3.975 4.773 4.081-3.693 1.726 2.792 2.934-2.435 6.386 8.064h-1.559l-5.682-5.444-3.427 2.209.657 3.735-3.657-3.572 2.942-1.819-.955-.955-6.978 5.695 4.027 4.651 4.464 6.419v1.391l-3.977-3.599-6.375-9.934 3.352-1.876v-2.043l-2.857-2.857-1.643.054-6.965 5.774 3.206 3.672 11.64 17 5.839 8.614-.898.898-3.024-3.512-14.797-21.552-3.827-6.192 4.775-3.602L707 867.51l-8.983 5.749 5.897 8.641 2.366 4.5h-1.602l-8.713-13.347 5.11-3.723-8.541-12.431-11.825-17.059-3.321-4.63-16.679 9.946-9.392 5.263L671.83 892.9l11.703 24.5h1.776l6.087-3.147.568.647 4.286 8.5h1.039l7.848-4.004 2.005 3.504 1.802 2.689 6.591-3.408 3.36 4.454 3.815-1.155 6.5 10.721-.052 2.699-6.823-10.707-.953-.953-5.229 3.426 3.181 4.856-.744 2.232-4.719-7.635 3.371-2.465-1.249-3.254h-1.006l-11.78 6.279v1.966l3.152-2.616 1.915 2.871 2.003 3.5h-2l-2.108-3.94-4.962 2.261-.064 4.179-3.005-3.976 3.269-2.39-1.266-2.048 6.565-3.34.771-.683-3.352-5.115-13.419 7.365-1.769 1.556 19.338 39.423-.845 2.208-11.973-25-8.252-16.807v-1.652l8.024-4.093-2.951-5.447-1.796-2.669-12.778 6.406-.639.569 4.256 8.343-.891 2.351-5.339-11.812 2.613-1.706 4.5-1.199v-1.676l-33-67.184v-.898l13.895-6.997-10.395-18.257-2.279-.9-19.721 9.793-12.543 4.596-.907 1.468 17.113 51.772 1.447 1.511 9.608-3.274 1.47 2.379 5.003-1.256 5.807 15.115 4.365.025 1.384 4.5 17.751 41.358v1.082l5.149 11.559 2.722 6.03 2.053 5.399-1.924 1.189v-1.998l-16.995-40.12-1.923-4.5-9.34-22-.591-.683-4.151 1.317v1.879l16 40.918v1.469l-1.85-1.9-15.196-39-1.911-4.5h2.957v-2.06l-5.21-12.44-.656-.699-7.133 2.354 1.275 5.345 1.493 2 1.245 7-3.286-7-1.601-4-1.182-4.252 4.556-1.46-3.712-.976-2.188 2.188h-3.6v1.026l12.267 37.474 1.073 2.828-2.222-1.373-11.358-34.455-1.741-4.58-4.207 2.252 1.054 3.329 2.949 10 2.989 9.5h-1.631l-4-12.5-2.293-9-1.016-3.5h4.198l.944-2.5-17.947-53.959 1.441-1.272 15-5.538 1.508-1.339-5.008-10.382v-2.01h1.705l19.795-10.922 13.878-9.713.554-1.866-2.783-3.678-16.641 11.594-24.566 12.406-22.942 7.416v1.893l2.031 3.794 2.698-1.035 1.222 6.11h2.713l2.214 8.5 3.198 12 .837 3 10.256 36 1.104 4-2.136-2-6.23-22-.79-3-2.812-10-6.761-24.5h-2.543v3.962l9.199 35.538 4.821 20 1.958 7 2.832 11.5h-1.48l-7.843-31-.364-1.5-11.776-46.5h1.653v-4.987l-4.5.839-1.245.149 4.528 20.5 4.359 20 4.051 17 .664 3 5.217 23.812 1.043 1.688h-1.885l-1.272-4.5-3.105-14-.923-4-1.717-8-3.167-14-5.119-22-2.912-13-1.807-7.5h3.053l-1.055-7.868 14.292-4.306 13-5.069 6.28-2.881-1.014-3.876h-.515l-17.751 7.246-14 3.882-6.658 1.697-.881.881 2.945 12.794 1.043 6 1.987 10 1.05 5 4.824 24 3.074 16 1.366 6.5h-1.895l-2.304-13.5-2.094-10-.838-4.571-10.506-53.072 2.765-1.709 12.411-3.118 5.13-1.951-3.965-11.526-1.483-1.483-8.292 2.857-4.679.881-18 3.439-32-.042-21.74-4.324-17.502-5.864-8.758-3.932-9.398 18.414-.102 2.13 6.986 3.331-3.447 7.229 3.843 2.81h2.416l-5.759 15.438 1.462 1.405 7 1.837-.454 4.191 10.761 3.128h2.074l1.134 1.834-2.836 12.159 1.417.876 18.882 3.276.921.921-.539 8.761 13.64 1.47 5 .391 5.5.313v7h25.783l1.308 5.213 8.653-1.298 1.082 4.136 7.968-1.274 1.087 3.723 1.297 12 1.643 7 1.322 11.5h3.697l1.123 5.5 2.056 13.391 1.193 3.109h-1.987l-1.57-9.5.168-1-2.544-10-2.782-.497-2.584 1.668 2.035 8.83-.086 6-1.653-4-1.814-12.491 3.616-1.148-1.032-5.361-2.045-13-2.437-14-5 .745-10 1.255.217 6 2.51 28 .607 4 .167 6.5h5.765l1.584 15.5-.437 2.5h5.088l.048 7.5 1.744 7.511-1.604.991-1.333-10.502-.99-3.5h-5.865v6.333l-1.145-1.145-.949-6.024 4.094-1.3v-5.592l-2.014-10.62-.719-.719-8.542 1.366 1.345 20.2.901 11.5h-1.667l-1.291-24.5-1.236-8.205 5.989-1.198-.832-9.597-1.879-18-1.307-18.436 8.253-1.32v-2.023l-10.5 1.261-7.462.018.896 8.5 1.108 33.5h-1.736l-.72-22.5-.087-21 8.5-.615v-3.441l-31.5.056-19.245-1.721-1.032 1.721-1.335 11.63-.997 2.597 8.109 1.297v5.609l-1.839 10.867-1.204 13.37 6.542.63-.295 6.5 5.295.03 2.164 1.469-1.443 15 .559.613 5.72.749 1.5.138v7h6v8h5.909l.591 13.5 4.5.639-.35 41.361-1.418.202.04-24.202-.271-15.5h-6.89l.238 9.627-.987-.127-.361-11.5h4v-12h-11v8h-2v-3.75l1.25-6.25h5.75v-5.728l-9.279-1.272h-3.574l-.915 3.5-.232-4.5h7v-5.728l-9.279-1.272h-3.721l-.031 4.5-1.939 3-.031-3.25 1.166-5.829 6.543.764 1.27-7.685.022-7.286-3.164-1.214h-9.836l-.059 1.5-2.884 27-2.172 19-.806 8-2.151 19-5.932 55.838-1.248 1.162 1.145-15 3.173-28 2.869-27 2.924-27 2.217-20 .86-7.884 1.32-8.805 6.592.769.876-4.581-4.223-.275-9-.225-1.275 10-3.08 23-3.222 24.91-.924.923-.77-.833 1.768-13 .87-6 4.22-32 1.463-9 6.267.604 1.064-1.722 1.078-10.881 1.324-16.356-6.784-1.109-6.997-.534-2.451 12-2.989 18-1.314 6.5h3.25l-.237 5.5-1.678 6 .604-10.319-5.736-.842-.882 4.16-4.088 23-1.958 10-2.313 12-.969-2.772 2.158-10.228 4.176-23 2.038-10 .924-4.5h2.844l1.008-1.632 6.329-36.108 6.9 1.556 1.616-4.316 1.437-13.621 5.328 1.029 21.5 1.331v-5.302l-2.5-.833-23-1.926-18-3.487-4.901-.191-4.538 16-.06 3.462 5 1.255v4.653l-2.02 5.312 3.657.956-6.856 31.362-.781.833-.794-.833 5.814-26 .48-4-5.051-.59-3.627 16.59-2.104 7-.765 2.786-.945-.945 6.486-27.341h3.468l1.224-5.5.863-3.23-6.549-1.192-4.246-1.245-2.15 6.167h3.146l-1.381 6.5-.716 3-4.509 17-.645.833-1.08-1.08 6.226-22.43-1.083-2.823h-3.817l-3.377 12.5-1.457 6-1.108-3 4.561-14 .135-3.361 4.382-.639 1.638-6.355 5.727 1.643 2.071-7.288 3.662-14.642 5.021 1.147 11 1.985 4.66.925 3.84 1.219.333-5.135.167-3.466-8-1.513-12-2.091L488 862.303l-2.148.716-9.523 28.881 2.64 2.045-8.462 25.955-7.299 22.556v2.944h-2.233l1.313-4.5.748-3 13.046-40 .627-4-4.267-.609-2.042 5.609-11.38 32-1.886 6.428-1.926 1.19v-.654l7.044-19.964.852-3 8.105-22.782v-.718h3.667l9.278-27.455-1.445-1.286-5.025-1.177-13.975 36.893-1.667.026 14.667-38.83 9 .589 13 4.031 3.472 1.412 1.748-4.703 1.347-7.377-11.567-3.401-13.294-4.958-2.354.785-7.987 18.951-14.169 35-.029 2.5h-1.667v1.8l-7.2 17.2h-1.63l28.101-68.5 3.522-9 2.907-.589 10.374 4.089h1.926v-1.747l-15.987-6.38-2.013 1.244v1.764l-7.777 16.618-6.409 15.5h-1.813v-.517l15.683-35.499 1.234-1.234 8.333 3.334.347-.584 5.399-12.837-.496-.403-9.754-4.259h-1.444l-9.588 20.5-10.846 23-12.299 25.706-.645-1.936 32.577-69.322 3 .825 3.365 1.389 3.164-6.119-12.529-6.529-1.39-.645-3.709 7.63-7.775 13.861 3.212 2.026-4.994 9.856 2.029 2.029-23.095 46.228-.777.833-1.191-1.191 23.335-45.15-3.278-1.258-1.603 1.766-15.636 29-.626.833-1.228-1.228 3.961-6.605 12.555-24 1.858-2.381 2.513.964 3.624-8.037-2.528-3.046h-2.47l-9.055 15.5-6.211 11-.018-2.754 8.304-15.246 6.984-11.506 2.76 2.291.615-.785 10.547-20 2.041-2.508 6.734 4.162 10.254-22.03 10.26 4.237 16 5.53 19 3.938 10.5 1.077.052-2.406 1.876-30.481 1.291-9.728 26.281-1.234 16.541-4.952 14.529-6.604 14.38-9 .05-2.386-10.547-12.614-19.65-24.601-4.675 3.063-6.945 3.901-12.683 3.899-12.136 1.392-12.864-2.29-8-2.716-7-3.503-10.021-7.353-7.549-9.213-7.035-14.235-2.503-17.338 1.302-8.576-1.665-1.029-11.529-1.992-6.192-1.12-1.007 13.712 1.207 14.339-6.008.965-17 3.214-18.25 3.612-3.25.632v.716l4.067 14.826 7.181 16.697 1.861 2.336-8.804 4.743-8.805 4.743-13 7.358-18 9.616-.716.588 9.216 14.786-.004 1.832-9.496 5.914-1 1.086-6 4.183-21.5 14.58.01 2.236 16.944 21 .046 1.364-16.363 14.636-7.276 7-22.387 20 23.912 23.324-5.385 5.712-8.753 10.544.753.551 15 12.001 15.545 11.415-2.045 3.821v1.131h2.133l6.751 5.15-7.778 12.35-7.15 12-2.457 3.883-6.979 11.117-2.021 3.331-9.544 15.313 3.856 3.356-11.703 19-.835 2-1.423-1.316 11.149-18.3V983.4h-2.343l-3.67-3.321-.639.821-13.063 21-11.619 17.999-.746-2.237 7.896-11.762 9.683-15 1.012-2 6.649-10.484 4.053 2.169 1.53-1.685 23.596-38 9.766-15.821.393-1.421-16.852-11.38-1.499 2.622-11.067 15-4.213 6-72.038 100-3.766 5-7.347 10.763 2.961 1.657 4.657 3.771-5.378 7.052 5.215 3.417-1.204 1.204-9.028-6.364h-1.674l-7.789 11.5-13.796 19.5h-.901zm573.822-613.271l-.604.604.158-3.833 1.05 2.625-.604.604zm-191.169-53.675l-1.083.899 4.092-13.121.751 2.254-2.678 9.07zm4.91-15.554l-1.3 3-.046-1.881 5.43-17.119.57-.833.99.989-4.345 12.844-1.3 3z"/></svg>